<svg width="183" height="174" viewBox="0 0 183 174" fill="none" xmlns="http://www.w3.org/2000/svg">
<path fill-rule="evenodd" clip-rule="evenodd" d="M61.6056 1.04475L90.6464 41.5354L118.154 0L117.701 49.721L164.523 32.1828L134.749 72.1451L183 85.3089L135.274 100.241L166.523 139.076L119.077 123.286L121.391 172.953L92.3512 132.466L64.8428 174L65.295 124.279L18.4767 141.811L48.253 101.85L0 88.6911L47.7249 73.7565L16.4729 34.9217L63.9205 50.7154L61.6056 1.04475Z" fill="#003300"/>
<path fill-rule="evenodd" clip-rule="evenodd" d="M97.1915 81.6172L91.4984 64.2073L85.8053 81.6172H67.3852L82.2872 92.3812L76.5952 109.79L91.4984 99.0296L106.403 109.79L100.71 92.3812L115.612 81.6172H97.1915Z" fill="white"/>
</svg>
