<svg width="140" height="21" viewBox="0 0 140 21" fill="none" xmlns="http://www.w3.org/2000/svg">
<path d="M40.6693 2.91556C41.1498 2.97521 41.6305 3.03454 41.9908 3.12375C42.8318 3.36182 42.892 3.7781 42.922 4.61098C42.9822 5.59262 42.9822 7.22861 42.9822 10.5003C42.9822 15.7351 42.892 17.7579 42.8318 18.4718C42.7719 19.3345 42.5617 19.6616 41.9908 19.8102C41.5704 19.9292 41.3 19.9292 40.459 20.0481C40.3688 20.1077 40.3688 20.4943 40.459 20.5542C41.6907 20.5542 43.0423 20.4645 44.5139 20.4645C46.4365 20.4645 49.9205 20.5835 51.933 20.5835C53.2847 20.5835 53.6152 20.4645 53.7653 20.2265C54.306 19.3939 55.147 16.3597 55.2973 15.4379C55.2673 15.3189 54.8766 15.2296 54.7865 15.3189C54.2459 16.6275 53.2847 18.1444 52.6839 18.7396C52.0833 19.3641 51.6328 19.5127 51.0319 19.5127C49.8606 19.5722 47.5178 19.5127 46.8569 19.3345C46.5264 19.2748 46.3462 18.9475 46.3161 18.442C46.2561 17.4604 46.2262 13.5642 46.2561 10.768C46.2862 8.09126 46.2861 5.11648 46.3161 4.52177C46.3462 3.71856 46.4064 3.36182 47.0672 3.15352C47.3974 3.03454 47.6377 3.00498 48.2985 2.91556C48.3888 2.85612 48.3587 2.4694 48.2985 2.40996C47.5478 2.43973 46.3161 2.49917 44.4839 2.49917C42.2312 2.49917 41.5404 2.40996 40.6992 2.40996C40.6392 2.43973 40.6091 2.85612 40.6693 2.91556ZM62.6558 12.969C62.6558 13.2666 62.6855 13.3559 62.6558 13.6829C62.6558 13.7722 62.5054 13.9804 62.4454 14.0101C61.244 14.5455 57.7295 15.408 57.0387 15.8542C56.8585 16.1815 56.5881 17.0739 56.5881 17.4012C56.5881 18.5312 57.0086 19.5424 57.6395 20.1372C58.1202 20.5835 58.6908 20.8215 59.3215 20.8215C59.8322 20.8215 61.1237 20.3454 62.4754 19.3345C62.4754 19.3345 62.5957 19.3047 62.5957 19.3641C62.6257 19.5127 62.6855 19.7805 62.7459 19.9292C62.956 20.4349 63.4366 20.8215 64.3979 20.8215C65.4491 20.8215 66.4704 20.4349 67.1913 19.632C67.2512 19.5722 67.3415 19.0368 67.3415 18.9475C66.951 19.0665 66.7407 19.0963 66.4403 19.0963C65.6291 19.0963 65.4491 18.2635 65.4491 17.7877C65.4491 16.6275 65.5092 14.6942 65.5092 13.2666C65.5092 12.3148 65.3591 11.0656 64.8483 10.2324C64.2177 9.2511 63.1362 8.59675 61.6645 8.59675C60.8834 8.59675 58.9611 9.39975 57.5494 10.4112C57.4294 10.5299 56.9789 11.7496 56.9789 11.9282C56.9789 12.0768 57.4294 12.4634 57.5494 12.404C57.7295 11.8982 58.3602 10.768 58.6006 10.5895C58.8108 10.4112 59.3516 10.2324 60.0124 10.2324C60.8235 10.2324 61.7246 10.5895 62.2051 11.3333C62.5354 11.809 62.6558 12.3742 62.6558 12.969ZM62.6257 14.7238C62.6257 15.2296 62.6257 17.2819 62.5957 18.2041C62.5957 18.5016 62.5054 18.7098 62.3553 18.8285C62.115 19.007 61.7246 19.0665 61.4242 19.0665C60.3729 19.0665 59.4418 18.1742 59.4418 16.7763C59.4418 16.4195 59.5919 15.7948 59.6822 15.7054C59.9522 15.408 61.4843 14.9618 62.5354 14.605C62.5655 14.605 62.6257 14.6942 62.6257 14.7238ZM69.0233 15.7351C68.9331 15.6459 68.5427 15.7351 68.4826 15.8542C68.5729 16.7466 68.9032 19.6616 69.2034 20.1372C69.7443 20.4943 71.6064 21 73.3789 21C77.5839 21 80.0466 18.7098 80.0466 15.527C80.0466 13.4747 78.8453 12.1361 76.9832 10.8871C75.8417 10.1435 74.9108 9.6676 73.7389 8.77538C72.5377 7.88285 71.8768 6.90132 71.8768 5.53307C71.8768 3.8974 72.9883 2.61826 74.8503 2.61826C75.7815 2.61826 76.4724 2.76701 77.1633 3.24284C77.9742 3.74844 78.3048 4.61098 78.4847 6.48494C78.545 6.54448 78.9354 6.51471 78.9956 6.42529C79.1158 4.70019 79.3259 3.51037 79.5064 2.40996C78.3648 2.35063 77.1331 1.96369 75.1509 1.96369C71.8768 1.96369 69.1734 3.80788 69.1734 7.07964C69.1734 9.69737 70.7053 11.1248 73.6192 12.9988C76.0521 14.5752 77.0132 15.6164 77.0132 17.4012C77.0132 19.215 75.8417 20.2863 74.1896 20.2863C73.0783 20.2863 72.1169 20.078 71.3361 19.5424C70.2547 18.7989 69.5939 17.8174 69.0233 15.7351ZM88.0667 12.969C88.0667 13.2666 88.0968 13.3559 88.0667 13.6829C88.0667 13.7722 87.9164 13.9804 87.8565 14.0101C86.655 14.5455 83.1406 15.408 82.4494 15.8542C82.2694 16.1815 81.999 17.0739 81.999 17.4012C81.999 18.5312 82.4199 19.5424 83.0504 20.1372C83.5311 20.5835 84.1017 20.8215 84.7327 20.8215C85.243 20.8215 86.5346 20.3454 87.8864 19.3345C87.8864 19.3345 88.0066 19.3047 88.0066 19.3641C88.0367 19.5127 88.0968 19.7805 88.1566 19.9292C88.367 20.4349 88.8475 20.8215 89.809 20.8215C90.86 20.8215 91.8814 20.4349 92.6022 19.632C92.6622 19.5722 92.7525 19.0368 92.7525 18.9475C92.3619 19.0665 92.1517 19.0963 91.8511 19.0963C91.0403 19.0963 90.86 18.2635 90.86 17.7877C90.86 16.6275 90.9202 14.6942 90.9202 13.2666C90.9202 12.3148 90.7699 11.0656 90.2595 10.2324C89.6286 9.2511 88.5475 8.59675 87.0754 8.59675C86.2945 8.59675 84.372 9.39975 82.9603 10.4112C82.8403 10.5299 82.3898 11.7496 82.3898 11.9282C82.3898 12.0768 82.8403 12.4634 82.9603 12.404C83.1406 11.8982 83.7716 10.768 84.012 10.5895C84.222 10.4112 84.7626 10.2324 85.4233 10.2324C86.2343 10.2324 87.1355 10.5895 87.616 11.3333C87.9466 11.809 88.0667 12.3742 88.0667 12.969ZM88.0367 14.7238C88.0367 15.2296 88.0367 17.2819 88.0066 18.2041C88.0066 18.5016 87.9164 18.7098 87.7662 18.8285C87.5259 19.007 87.1354 19.0665 86.8351 19.0665C85.7839 19.0665 84.8528 18.1742 84.8528 16.7763C84.8528 16.4195 85.0029 15.7948 85.0929 15.7054C85.3634 15.408 86.8954 14.9618 87.9466 14.605C87.9766 14.605 88.0367 14.6942 88.0367 14.7238ZM93.2032 20.5542C93.6539 20.5542 94.645 20.4645 96.207 20.4645C97.7689 20.4645 99.0603 20.5542 99.4207 20.5542C99.481 20.4645 99.511 20.1372 99.481 20.0481C99.1203 19.9887 98.82 19.9589 98.4894 19.8102C98.0389 19.6022 97.949 19.4236 97.889 18.5016C97.8286 17.3414 97.8286 15.1108 97.8286 10.0542C97.8286 7.4368 97.8286 5.11648 97.8587 3.62956C97.8587 1.75571 97.949 0.774183 98.0991 0.447005C98.0991 0.387463 98.0091 0.298146 97.949 0.268478C96.9276 0.744516 94.675 1.27957 93.2333 1.3691C93.1733 1.4581 93.1432 1.75571 93.2333 1.81515C93.7435 1.87459 94.074 1.96369 94.3145 2.08289C94.645 2.20166 94.675 2.55871 94.7051 2.88578C94.8252 4.10538 94.8252 7.55557 94.8252 10.5597C94.8252 13.3559 94.7951 17.1926 94.7651 18.5016C94.735 19.4236 94.5848 19.632 94.2544 19.7805C93.924 19.9292 93.714 19.9589 93.2032 20.0481C93.1432 20.1372 93.1432 20.4645 93.2032 20.5542ZM100.292 20.5542C100.742 20.5542 101.733 20.4645 103.295 20.4645C104.857 20.4645 106.149 20.5542 106.509 20.5542C106.569 20.4645 106.599 20.1372 106.569 20.0481C106.209 19.9887 105.908 19.9589 105.578 19.8102C105.127 19.6022 105.038 19.4236 104.977 18.5016C104.917 17.3414 104.917 15.1108 104.917 10.0542C104.917 7.4368 104.917 5.11648 104.947 3.62956C104.947 1.75571 105.038 0.774183 105.188 0.447005C105.188 0.387463 105.097 0.298146 105.038 0.268478C104.016 0.744516 101.764 1.27957 100.322 1.3691C100.262 1.4581 100.232 1.75571 100.322 1.81515C100.832 1.87459 101.163 1.96369 101.403 2.08289C101.733 2.20166 101.764 2.55871 101.793 2.88578C101.914 4.10538 101.914 7.55557 101.914 10.5597C101.914 13.3559 101.884 17.1926 101.854 18.5016C101.824 19.4236 101.673 19.632 101.343 19.7805C101.012 19.9292 100.802 19.9589 100.292 20.0481C100.232 20.1372 100.232 20.4645 100.292 20.5542ZM112.096 4.52177C112.096 4.31369 112.036 3.86742 111.856 3.62956C111.735 3.54014 111.345 3.30238 110.774 3.30238C110.264 3.30238 109.453 3.56991 109.182 3.80788C109.002 4.04595 108.942 4.55175 109.002 4.90849C109.032 5.29511 109.242 5.89013 109.723 6.06844C110.084 6.2172 111.165 6.03867 111.405 5.9199C111.765 5.65206 112.096 5.08681 112.096 4.52177ZM113.688 20.0481C113.177 19.9887 112.907 19.8993 112.697 19.8399C112.306 19.6911 112.126 19.4829 112.096 18.68C112.066 17.3714 112.066 15.0808 112.066 13.5344C112.066 11.8387 112.126 9.2511 112.126 8.50743C110.804 9.13202 108.492 9.48907 107.741 9.51873C107.71 9.57817 107.71 9.9649 107.741 10.0244C108.221 10.1733 108.492 10.2623 108.762 10.5299C108.942 10.768 108.972 11.0656 108.972 11.3036C109.032 11.7496 109.032 13.0286 109.032 14.1289C109.032 15.6164 109.002 17.9066 108.972 18.5906C108.942 19.3344 108.822 19.6911 108.401 19.8399C108.131 19.9589 107.741 20.0185 107.38 20.0481C107.32 20.078 107.32 20.4943 107.38 20.5542C108.011 20.5542 109.062 20.4645 110.564 20.4645C111.735 20.4645 112.847 20.5542 113.568 20.5542C113.688 20.4943 113.688 20.1372 113.688 20.0481ZM120.867 12.969C120.867 13.2666 120.897 13.3559 120.867 13.6829C120.867 13.7722 120.717 13.9804 120.656 14.0101C119.455 14.5455 115.941 15.408 115.25 15.8542C115.07 16.1815 114.799 17.0739 114.799 17.4012C114.799 18.5312 115.22 19.5424 115.851 20.1372C116.331 20.5835 116.902 20.8215 117.533 20.8215C118.043 20.8215 119.335 20.3454 120.686 19.3345C120.686 19.3345 120.807 19.3047 120.807 19.3641C120.837 19.5127 120.897 19.7805 120.957 19.9292C121.167 20.4349 121.648 20.8215 122.609 20.8215C123.66 20.8215 124.682 20.4349 125.402 19.632C125.462 19.5722 125.553 19.0368 125.553 18.9475C125.162 19.0665 124.952 19.0963 124.651 19.0963C123.841 19.0963 123.66 18.2635 123.66 17.7877C123.66 16.6275 123.72 14.6942 123.72 13.2666C123.72 12.3148 123.57 11.0656 123.059 10.2324C122.429 9.2511 121.347 8.59675 119.876 8.59675C119.095 8.59675 117.172 9.39975 115.76 10.4112C115.64 10.5299 115.19 11.7496 115.19 11.9282C115.19 12.0768 115.64 12.4634 115.76 12.404C115.941 11.8982 116.572 10.768 116.812 10.5895C117.022 10.4112 117.563 10.2324 118.223 10.2324C119.035 10.2324 119.936 10.5895 120.416 11.3333C120.747 11.809 120.867 12.3742 120.867 12.969ZM120.837 14.7238C120.837 15.2296 120.837 17.2819 120.807 18.2041C120.807 18.5016 120.716 18.7098 120.566 18.8285C120.326 19.007 119.936 19.0665 119.635 19.0665C118.584 19.0665 117.653 18.1742 117.653 16.7763C117.653 16.4195 117.803 15.7948 117.893 15.7054C118.164 15.408 119.695 14.9618 120.747 14.605C120.777 14.605 120.837 14.6942 120.837 14.7238ZM126.243 20.0481C126.183 20.167 126.183 20.4645 126.243 20.5542C126.844 20.524 127.355 20.4645 129.247 20.4645C130.628 20.4645 131.62 20.524 132.521 20.5542C132.551 20.4645 132.581 20.1077 132.551 20.0481C132.071 19.9887 131.83 19.9292 131.56 19.8399C131.169 19.7507 130.959 19.5722 130.899 18.6503C130.839 17.4012 130.839 13.5344 130.839 11.6604C130.839 11.3333 130.959 11.1248 131.109 11.0061C131.65 10.5895 132.371 10.4112 132.881 10.4112C133.513 10.4112 133.933 10.5299 134.323 10.8275C134.834 11.2142 135.074 11.8387 135.194 12.404C135.435 13.5642 135.374 17.6985 135.314 18.8285C135.254 19.4532 135.164 19.7507 134.684 19.8697C134.473 19.9292 134.233 19.9887 133.782 20.0481C133.752 20.078 133.722 20.4943 133.782 20.5542C134.654 20.524 135.435 20.4645 137.056 20.4645C138.829 20.4645 139.429 20.5542 139.88 20.5542C139.97 20.4645 140 20.1372 140 20.0481C139.37 19.9589 139.069 19.8102 138.709 19.6022C138.528 19.4829 138.438 19.2748 138.438 19.0665C138.378 18.1146 138.408 14.9618 138.408 13.5642C138.408 12.1958 138.258 11.0357 137.717 10.1733C137.117 9.16189 136.216 8.59675 134.894 8.59675C133.963 8.59675 132.551 9.22133 130.959 10.4705C130.929 10.5299 130.839 10.5003 130.839 10.4112C130.869 9.90546 130.899 9.22133 130.959 8.68575C130.959 8.62652 130.899 8.53721 130.869 8.50743C129.938 9.04312 128.106 9.5483 126.514 9.72714C126.454 9.78637 126.423 10.1138 126.423 10.1733C127.625 10.5597 127.685 10.9764 127.745 11.2738C127.775 11.5413 127.805 13.1771 127.805 14.159C127.805 15.3487 127.805 17.7281 127.745 18.6503C127.715 19.3939 127.505 19.7507 127.145 19.8697C126.814 19.9589 126.514 20.0185 126.243 20.0481Z" fill="white"/>
<path d="M4.29529 20.0774C4.20499 20.1666 4.20499 20.4342 4.29529 20.5531C5.07635 20.5829 6.90831 20.4639 8.56041 20.4639C9.73189 20.4639 11.4442 20.5531 12.4953 20.5531C12.5555 20.4937 12.5853 20.1666 12.5555 20.0774C11.8647 20.0178 11.3539 19.9877 10.9034 19.8393C10.2727 19.6608 9.91207 19.4825 9.85215 17.8168C9.76206 16.2403 9.73189 7.70379 9.73189 3.48017C9.73189 3.39096 9.79213 3.2422 9.88201 3.21243C10.513 3.18266 15.0486 3.15289 16.1599 3.21243C16.31 3.2422 16.4303 3.42062 16.4303 3.56927C16.4601 4.61035 16.4601 5.77051 16.4601 13.4147C16.4601 14.158 16.4303 17.787 16.4002 18.5009C16.3701 19.3933 16.2499 19.7501 15.7693 19.8989C15.499 19.9877 15.1987 20.0178 14.748 20.0774C14.688 20.196 14.6579 20.4342 14.748 20.5531C15.2589 20.5531 16.34 20.4639 17.3611 20.4639C18.5928 20.4639 20.0046 20.5233 20.3649 20.5233C20.395 20.4639 20.4552 20.1666 20.3649 20.0774C19.8843 20.0178 19.7343 19.9877 19.3739 19.8989C18.8031 19.7501 18.6228 19.4825 18.5928 18.5603C18.5327 17.757 18.5027 13.6823 18.5027 11.6001C18.5027 11.4219 18.653 11.1244 18.8933 10.9161C19.5239 10.3806 20.3049 10.1131 21.1461 10.1131C23.0083 10.1131 23.7291 11.3921 23.9094 12.2546C24.1796 13.623 24.0896 16.6565 24.0595 18.2331C24.0294 19.5418 23.9094 19.6608 23.5488 19.8393C23.3386 19.9285 22.8881 19.9877 22.3773 20.0774C22.3174 20.1666 22.2874 20.4937 22.3773 20.5531C22.7978 20.5233 24.0595 20.4937 25.0508 20.4639C26.3724 20.4342 27.5738 20.5531 27.9644 20.5531C28.0242 20.5233 28.1145 20.1666 28.0844 20.0774C27.2436 19.9877 26.823 19.8989 26.4323 19.6013C26.2221 19.4229 26.252 19.1552 26.252 19.0659C26.2221 17.7569 26.1922 14.7531 26.1922 13.236C26.1922 10.2915 24.9605 8.68532 22.738 8.68532C21.5966 8.68532 20.2148 9.28024 18.6228 10.4998C18.5627 10.5293 18.5027 10.4998 18.5027 10.4702V3.09366C18.5327 0.743563 18.5627 0.267843 18.5627 0.148967C18.5627 0.0595446 18.4727 0 18.4127 0C18.3224 0 17.5717 0.356948 16.5502 0.386825C16.4902 0.386825 16.4002 0.535582 16.4002 0.595021V2.17146C16.4002 2.26057 16.31 2.29024 16.28 2.29024L3.00376 2.32011C2.28283 2.32011 1.32149 2.1418 0.780846 1.90372C0.690863 1.87395 0.570602 1.90372 0.510578 1.90372C0.450554 3.12311 0.210244 5.05661 0 6.27611C0.0300652 6.36521 0.420488 6.45453 0.510578 6.39498C0.931172 5.2647 1.32149 4.46159 1.77215 3.86678C2.01246 3.53971 2.34296 3.21243 2.94352 3.21243C3.60432 3.15289 6.63815 3.15289 7.17879 3.18266C7.23892 3.18266 7.35918 3.30175 7.35918 3.39096C7.35918 8.14974 7.32912 16.3593 7.29895 17.6681C7.20875 19.0956 7.0887 19.6908 6.21777 19.8095C5.82702 19.8988 5.25653 19.9877 4.29529 20.0774ZM39.0778 17.9059C37.9963 18.9172 36.9451 19.1552 35.8035 19.1552C34.5422 19.1552 33.4009 18.7389 32.4997 17.6383C31.839 16.8352 31.4182 15.5264 31.3883 14.3664C31.3883 14.2176 31.4482 14.0392 31.5685 14.0392C33.8815 13.9798 38.0564 13.7417 39.2279 13.3552C39.3181 13.3254 39.378 13.0576 39.348 12.9686C39.0778 12.9386 39.0176 12.8196 38.9876 12.7306C38.7473 11.3027 37.8161 8.68532 35.0229 8.68532C34.2417 8.68532 32.7699 9.10161 31.959 9.63698C30.3671 10.6186 29.3758 12.4331 29.3758 14.8421C29.3758 16.4485 29.7965 18.1735 30.9379 19.3933C31.7487 20.2855 32.9502 20.8208 34.452 20.8208C35.9239 20.8208 37.6961 20.0475 39.1377 18.5009C39.1678 18.4414 39.2279 18.1441 39.1978 17.995C39.1978 17.9358 39.1079 17.9059 39.0778 17.9059ZM34.0617 9.45855C35.8036 9.45855 36.6446 11.3325 36.825 12.8494C36.825 12.9686 36.7048 13.0576 36.6446 13.0875C36.0139 13.236 32.3794 13.3552 31.5685 13.2957C31.5385 13.2957 31.4784 13.2065 31.4784 13.1171C31.5986 10.7379 32.7099 9.45855 34.0617 9.45855Z" fill="white"/>
</svg>
