<svg width="194" height="46" viewBox="0 0 194 46" fill="none" xmlns="http://www.w3.org/2000/svg">
<g clip-path="url(#clip0_92_132)">
<path fill-rule="evenodd" clip-rule="evenodd" d="M16.4955 0.276198L24.2714 10.9806L31.6369 0L31.5156 13.1446L44.0526 8.5081L36.0803 19.0728L49 22.5529L36.2209 26.5005L44.5881 36.7672L31.884 32.5929L32.5036 45.7232L24.7279 35.0197L17.3623 46L17.4834 32.8554L4.94731 37.4903L12.9202 26.9259L0 23.4471L12.7788 19.4988L4.41078 9.23217L17.1153 13.4075L16.4955 0.276198Z" fill="white"/>
<path fill-rule="evenodd" clip-rule="evenodd" d="M26.024 21.577L24.4996 16.9743L22.9752 21.577H18.043L22.0332 24.4226L20.5091 29.0249L24.4996 26.1802L28.4904 29.0249L26.9661 24.4226L30.9562 21.577H26.024Z" fill="#003300"/>
</g>
<path d="M94.6693 15.9156C95.1498 15.9752 95.6305 16.0345 95.9908 16.1238C96.8318 16.3618 96.892 16.7781 96.922 17.611C96.9822 18.5926 96.9822 20.2286 96.9822 23.5003C96.9822 28.7351 96.892 30.7579 96.8318 31.4718C96.7719 32.3345 96.5617 32.6616 95.9908 32.8102C95.5704 32.9292 95.3 32.9292 94.459 33.0481C94.3688 33.1077 94.3688 33.4943 94.459 33.5542C95.6907 33.5542 97.0423 33.4645 98.5139 33.4645C100.436 33.4645 103.921 33.5835 105.933 33.5835C107.285 33.5835 107.615 33.4645 107.765 33.2265C108.306 32.3939 109.147 29.3597 109.297 28.4379C109.267 28.3189 108.877 28.2296 108.787 28.3189C108.246 29.6275 107.285 31.1444 106.684 31.7396C106.083 32.3641 105.633 32.5127 105.032 32.5127C103.861 32.5722 101.518 32.5127 100.857 32.3345C100.526 32.2748 100.346 31.9475 100.316 31.442C100.256 30.4604 100.226 26.5642 100.256 23.768C100.286 21.0913 100.286 18.1165 100.316 17.5218C100.346 16.7186 100.406 16.3618 101.067 16.1535C101.397 16.0345 101.638 16.005 102.299 15.9156C102.389 15.8561 102.359 15.4694 102.299 15.41C101.548 15.4397 100.316 15.4992 98.4839 15.4992C96.2312 15.4992 95.5404 15.41 94.6992 15.41C94.6392 15.4397 94.6091 15.8561 94.6693 15.9156ZM116.656 25.969C116.656 26.2666 116.686 26.3559 116.656 26.6829C116.656 26.7722 116.505 26.9804 116.445 27.0101C115.244 27.5455 111.73 28.408 111.039 28.8542C110.858 29.1815 110.588 30.0739 110.588 30.4012C110.588 31.5312 111.009 32.5424 111.64 33.1372C112.12 33.5835 112.691 33.8215 113.321 33.8215C113.832 33.8215 115.124 33.3454 116.475 32.3345C116.475 32.3345 116.596 32.3047 116.596 32.3641C116.626 32.5127 116.686 32.7805 116.746 32.9292C116.956 33.4349 117.437 33.8215 118.398 33.8215C119.449 33.8215 120.47 33.4349 121.191 32.632C121.251 32.5722 121.341 32.0368 121.341 31.9475C120.951 32.0665 120.741 32.0963 120.44 32.0963C119.629 32.0963 119.449 31.2635 119.449 30.7877C119.449 29.6275 119.509 27.6942 119.509 26.2666C119.509 25.3148 119.359 24.0656 118.848 23.2324C118.218 22.2511 117.136 21.5968 115.664 21.5968C114.883 21.5968 112.961 22.3998 111.549 23.4112C111.429 23.5299 110.979 24.7496 110.979 24.9282C110.979 25.0768 111.429 25.4634 111.549 25.404C111.73 24.8982 112.36 23.768 112.601 23.5895C112.811 23.4112 113.352 23.2324 114.012 23.2324C114.823 23.2324 115.725 23.5895 116.205 24.3332C116.535 24.809 116.656 25.3742 116.656 25.969ZM116.626 27.7238C116.626 28.2296 116.626 30.2819 116.596 31.2041C116.596 31.5016 116.505 31.7098 116.355 31.8285C116.115 32.007 115.725 32.0665 115.424 32.0665C114.373 32.0665 113.442 31.1742 113.442 29.7763C113.442 29.4195 113.592 28.7948 113.682 28.7054C113.952 28.408 115.484 27.9618 116.535 27.605C116.565 27.605 116.626 27.6942 116.626 27.7238ZM123.023 28.7351C122.933 28.6459 122.543 28.7351 122.483 28.8542C122.573 29.7466 122.903 32.6616 123.203 33.1372C123.744 33.4943 125.606 34 127.379 34C131.584 34 134.047 31.7098 134.047 28.527C134.047 26.4747 132.845 25.1361 130.983 23.8871C129.842 23.1435 128.911 22.6676 127.739 21.7754C126.538 20.8829 125.877 19.9013 125.877 18.5331C125.877 16.8974 126.988 15.6183 128.85 15.6183C129.782 15.6183 130.472 15.767 131.163 16.2428C131.974 16.7484 132.305 17.611 132.485 19.4849C132.545 19.5445 132.935 19.5147 132.996 19.4253C133.116 17.7002 133.326 16.5104 133.506 15.41C132.365 15.3506 131.133 14.9637 129.151 14.9637C125.877 14.9637 123.173 16.8079 123.173 20.0796C123.173 22.6974 124.705 24.1248 127.619 25.9988C130.052 27.5752 131.013 28.6164 131.013 30.4012C131.013 32.215 129.842 33.2863 128.19 33.2863C127.078 33.2863 126.117 33.078 125.336 32.5424C124.255 31.7989 123.594 30.8174 123.023 28.7351ZM142.067 25.969C142.067 26.2666 142.097 26.3559 142.067 26.6829C142.067 26.7722 141.916 26.9804 141.856 27.0101C140.655 27.5455 137.141 28.408 136.449 28.8542C136.269 29.1815 135.999 30.0739 135.999 30.4012C135.999 31.5312 136.42 32.5424 137.05 33.1372C137.531 33.5835 138.102 33.8215 138.733 33.8215C139.243 33.8215 140.535 33.3454 141.886 32.3345C141.886 32.3345 142.007 32.3047 142.007 32.3641C142.037 32.5127 142.097 32.7805 142.157 32.9292C142.367 33.4349 142.847 33.8215 143.809 33.8215C144.86 33.8215 145.881 33.4349 146.602 32.632C146.662 32.5722 146.753 32.0368 146.753 31.9475C146.362 32.0665 146.152 32.0963 145.851 32.0963C145.04 32.0963 144.86 31.2635 144.86 30.7877C144.86 29.6275 144.92 27.6942 144.92 26.2666C144.92 25.3148 144.77 24.0656 144.259 23.2324C143.629 22.2511 142.547 21.5968 141.075 21.5968C140.294 21.5968 138.372 22.3998 136.96 23.4112C136.84 23.5299 136.39 24.7496 136.39 24.9282C136.39 25.0768 136.84 25.4634 136.96 25.404C137.141 24.8982 137.772 23.768 138.012 23.5895C138.222 23.4112 138.763 23.2324 139.423 23.2324C140.234 23.2324 141.135 23.5895 141.616 24.3332C141.947 24.809 142.067 25.3742 142.067 25.969ZM142.037 27.7238C142.037 28.2296 142.037 30.2819 142.007 31.2041C142.007 31.5016 141.916 31.7098 141.766 31.8285C141.526 32.007 141.135 32.0665 140.835 32.0665C139.784 32.0665 138.853 31.1742 138.853 29.7763C138.853 29.4195 139.003 28.7948 139.093 28.7054C139.363 28.408 140.895 27.9618 141.947 27.605C141.977 27.605 142.037 27.6942 142.037 27.7238ZM147.203 33.5542C147.654 33.5542 148.645 33.4645 150.207 33.4645C151.769 33.4645 153.06 33.5542 153.421 33.5542C153.481 33.4645 153.511 33.1372 153.481 33.0481C153.12 32.9887 152.82 32.9589 152.489 32.8102C152.039 32.6022 151.949 32.4236 151.889 31.5016C151.829 30.3414 151.829 28.1108 151.829 23.0542C151.829 20.4368 151.829 18.1165 151.859 16.6296C151.859 14.7557 151.949 13.7742 152.099 13.447C152.099 13.3875 152.009 13.2981 151.949 13.2685C150.928 13.7445 148.675 14.2796 147.233 14.3691C147.173 14.4581 147.143 14.7557 147.233 14.8151C147.744 14.8746 148.074 14.9637 148.314 15.0829C148.645 15.2017 148.675 15.5587 148.705 15.8858C148.825 17.1054 148.825 20.5556 148.825 23.5597C148.825 26.3559 148.795 30.1926 148.765 31.5016C148.735 32.4236 148.585 32.632 148.254 32.7805C147.924 32.9292 147.714 32.9589 147.203 33.0481C147.143 33.1372 147.143 33.4645 147.203 33.5542ZM154.292 33.5542C154.742 33.5542 155.733 33.4645 157.295 33.4645C158.857 33.4645 160.149 33.5542 160.509 33.5542C160.569 33.4645 160.599 33.1372 160.569 33.0481C160.209 32.9887 159.908 32.9589 159.578 32.8102C159.127 32.6022 159.038 32.4236 158.977 31.5016C158.917 30.3414 158.917 28.1108 158.917 23.0542C158.917 20.4368 158.917 18.1165 158.947 16.6296C158.947 14.7557 159.038 13.7742 159.188 13.447C159.188 13.3875 159.097 13.2981 159.038 13.2685C158.016 13.7445 155.764 14.2796 154.322 14.3691C154.262 14.4581 154.232 14.7557 154.322 14.8151C154.832 14.8746 155.163 14.9637 155.403 15.0829C155.733 15.2017 155.764 15.5587 155.793 15.8858C155.914 17.1054 155.914 20.5556 155.914 23.5597C155.914 26.3559 155.884 30.1926 155.854 31.5016C155.824 32.4236 155.673 32.632 155.343 32.7805C155.012 32.9292 154.802 32.9589 154.292 33.0481C154.232 33.1372 154.232 33.4645 154.292 33.5542ZM166.096 17.5218C166.096 17.3137 166.036 16.8674 165.856 16.6296C165.735 16.5401 165.345 16.3024 164.774 16.3024C164.264 16.3024 163.453 16.5699 163.182 16.8079C163.002 17.0459 162.942 17.5518 163.002 17.9085C163.032 18.2951 163.242 18.8901 163.723 19.0684C164.084 19.2172 165.165 19.0387 165.405 18.9199C165.765 18.6521 166.096 18.0868 166.096 17.5218ZM167.688 33.0481C167.177 32.9887 166.907 32.8993 166.697 32.8399C166.306 32.6911 166.126 32.4829 166.096 31.68C166.066 30.3714 166.066 28.0808 166.066 26.5344C166.066 24.8387 166.126 22.2511 166.126 21.5074C164.804 22.132 162.492 22.4891 161.741 22.5187C161.71 22.5782 161.71 22.9649 161.741 23.0244C162.221 23.1733 162.492 23.2623 162.762 23.5299C162.942 23.768 162.972 24.0656 162.972 24.3036C163.032 24.7496 163.032 26.0286 163.032 27.1289C163.032 28.6164 163.002 30.9066 162.972 31.5906C162.942 32.3345 162.822 32.6911 162.401 32.8399C162.131 32.9589 161.741 33.0185 161.38 33.0481C161.32 33.078 161.32 33.4943 161.38 33.5542C162.011 33.5542 163.062 33.4645 164.564 33.4645C165.735 33.4645 166.847 33.5542 167.568 33.5542C167.688 33.4943 167.688 33.1372 167.688 33.0481ZM174.867 25.969C174.867 26.2666 174.897 26.3559 174.867 26.6829C174.867 26.7722 174.717 26.9804 174.656 27.0101C173.455 27.5455 169.941 28.408 169.25 28.8542C169.07 29.1815 168.799 30.0739 168.799 30.4012C168.799 31.5312 169.22 32.5424 169.851 33.1372C170.331 33.5835 170.902 33.8215 171.533 33.8215C172.043 33.8215 173.335 33.3454 174.686 32.3345C174.686 32.3345 174.807 32.3047 174.807 32.3641C174.837 32.5127 174.897 32.7805 174.957 32.9292C175.167 33.4349 175.648 33.8215 176.609 33.8215C177.66 33.8215 178.682 33.4349 179.402 32.632C179.462 32.5722 179.553 32.0368 179.553 31.9475C179.162 32.0665 178.952 32.0963 178.651 32.0963C177.841 32.0963 177.66 31.2635 177.66 30.7877C177.66 29.6275 177.72 27.6942 177.72 26.2666C177.72 25.3148 177.57 24.0656 177.059 23.2324C176.429 22.2511 175.347 21.5968 173.876 21.5968C173.095 21.5968 171.172 22.3998 169.76 23.4112C169.64 23.5299 169.19 24.7496 169.19 24.9282C169.19 25.0768 169.64 25.4634 169.76 25.404C169.941 24.8982 170.572 23.768 170.812 23.5895C171.022 23.4112 171.563 23.2324 172.223 23.2324C173.035 23.2324 173.936 23.5895 174.416 24.3332C174.747 24.809 174.867 25.3742 174.867 25.969ZM174.837 27.7238C174.837 28.2296 174.837 30.2819 174.807 31.2041C174.807 31.5016 174.716 31.7098 174.566 31.8285C174.326 32.007 173.936 32.0665 173.635 32.0665C172.584 32.0665 171.653 31.1742 171.653 29.7763C171.653 29.4195 171.803 28.7948 171.893 28.7054C172.164 28.408 173.695 27.9618 174.747 27.605C174.777 27.605 174.837 27.6942 174.837 27.7238ZM180.243 33.0481C180.183 33.167 180.183 33.4645 180.243 33.5542C180.844 33.524 181.355 33.4645 183.247 33.4645C184.628 33.4645 185.62 33.524 186.521 33.5542C186.551 33.4645 186.581 33.1077 186.551 33.0481C186.071 32.9887 185.83 32.9292 185.56 32.8399C185.169 32.7507 184.959 32.5722 184.899 31.6503C184.839 30.4012 184.839 26.5344 184.839 24.6604C184.839 24.3333 184.959 24.1248 185.109 24.0061C185.65 23.5895 186.371 23.4112 186.881 23.4112C187.513 23.4112 187.933 23.5299 188.323 23.8275C188.834 24.2142 189.074 24.8387 189.194 25.404C189.435 26.5642 189.374 30.6985 189.314 31.8285C189.254 32.4532 189.164 32.7507 188.684 32.8697C188.473 32.9292 188.233 32.9887 187.782 33.0481C187.752 33.078 187.722 33.4943 187.782 33.5542C188.654 33.524 189.435 33.4645 191.056 33.4645C192.829 33.4645 193.429 33.5542 193.88 33.5542C193.97 33.4645 194 33.1372 194 33.0481C193.37 32.9589 193.069 32.8102 192.709 32.6022C192.528 32.4829 192.438 32.2748 192.438 32.0665C192.378 31.1146 192.408 27.9618 192.408 26.5642C192.408 25.1958 192.258 24.0357 191.717 23.1733C191.117 22.1619 190.216 21.5968 188.894 21.5968C187.963 21.5968 186.551 22.2213 184.959 23.4705C184.929 23.5299 184.839 23.5003 184.839 23.4112C184.869 22.9055 184.899 22.2213 184.959 21.6858C184.959 21.6265 184.899 21.5372 184.869 21.5074C183.938 22.0431 182.106 22.5483 180.514 22.7271C180.454 22.7864 180.423 23.1138 180.423 23.1733C181.625 23.5597 181.685 23.9764 181.745 24.2738C181.775 24.5413 181.805 26.1771 181.805 27.159C181.805 28.3487 181.805 30.7281 181.745 31.6503C181.715 32.3939 181.505 32.7507 181.145 32.8697C180.814 32.9589 180.514 33.0185 180.243 33.0481Z" fill="white"/>
<path d="M58.2953 33.0774C58.205 33.1666 58.205 33.4342 58.2953 33.5531C59.0763 33.5829 60.9083 33.4639 62.5604 33.4639C63.7319 33.4639 65.4442 33.5531 66.4953 33.5531C66.5555 33.4937 66.5853 33.1666 66.5555 33.0774C65.8647 33.0178 65.3539 32.9877 64.9034 32.8393C64.2727 32.6608 63.9121 32.4825 63.8522 30.8168C63.7621 29.2403 63.7319 20.7038 63.7319 16.4802C63.7319 16.391 63.7921 16.2422 63.882 16.2124C64.513 16.1827 69.0486 16.1529 70.1599 16.2124C70.31 16.2422 70.4303 16.4206 70.4303 16.5693C70.4601 17.6103 70.4601 18.7705 70.4601 26.4147C70.4601 27.158 70.4303 30.787 70.4002 31.5009C70.3701 32.3933 70.2499 32.7501 69.7693 32.8989C69.499 32.9877 69.1987 33.0178 68.748 33.0774C68.688 33.196 68.6579 33.4342 68.748 33.5531C69.2589 33.5531 70.34 33.4639 71.3611 33.4639C72.5928 33.4639 74.0046 33.5233 74.3649 33.5233C74.395 33.4639 74.4552 33.1666 74.3649 33.0774C73.8843 33.0178 73.7343 32.9877 73.3739 32.8989C72.8031 32.7501 72.6228 32.4825 72.5928 31.5603C72.5327 30.7569 72.5027 26.6823 72.5027 24.6001C72.5027 24.4219 72.653 24.1244 72.8933 23.9161C73.5239 23.3806 74.3049 23.1131 75.1461 23.1131C77.0083 23.1131 77.7291 24.3921 77.9094 25.2546C78.1796 26.623 78.0896 29.6565 78.0595 31.2331C78.0295 32.5418 77.9094 32.6608 77.5488 32.8393C77.3386 32.9285 76.8881 32.9877 76.3773 33.0774C76.3174 33.1666 76.2874 33.4937 76.3773 33.5531C76.7978 33.5233 78.0595 33.4937 79.0508 33.4639C80.3724 33.4342 81.5737 33.5531 81.9644 33.5531C82.0242 33.5233 82.1145 33.1666 82.0844 33.0774C81.2436 32.9877 80.823 32.8989 80.4323 32.6013C80.2221 32.4229 80.252 32.1552 80.252 32.0659C80.2221 30.7569 80.1922 27.7531 80.1922 26.236C80.1922 23.2915 78.9605 21.6853 76.738 21.6853C75.5966 21.6853 74.2148 22.2802 72.6228 23.4998C72.5627 23.5293 72.5027 23.4998 72.5027 23.4702V16.0937C72.5327 13.7436 72.5627 13.2678 72.5627 13.149C72.5627 13.0595 72.4727 13 72.4127 13C72.3224 13 71.5717 13.3569 70.5502 13.3868C70.4902 13.3868 70.4002 13.5356 70.4002 13.595V15.1715C70.4002 15.2606 70.31 15.2902 70.28 15.2902L57.0038 15.3201C56.2828 15.3201 55.3215 15.1418 54.7808 14.9037C54.6909 14.874 54.5706 14.9037 54.5106 14.9037C54.4506 16.1231 54.2102 18.0566 54 19.2761C54.0301 19.3652 54.4205 19.4545 54.5106 19.395C54.9312 18.2647 55.3215 17.4616 55.7721 16.8668C56.0125 16.5397 56.343 16.2124 56.9435 16.2124C57.6043 16.1529 60.6381 16.1529 61.1788 16.1827C61.2389 16.1827 61.3592 16.3017 61.3592 16.391C61.3592 21.1497 61.3291 29.3593 61.2989 30.6681C61.2088 32.0956 61.0887 32.6908 60.2178 32.8095C59.827 32.8989 59.2565 32.9877 58.2953 33.0774ZM93.0778 30.9059C91.9963 31.9172 90.9451 32.1552 89.8035 32.1552C88.5422 32.1552 87.4009 31.7389 86.4997 30.6383C85.839 29.8352 85.4182 28.5264 85.3883 27.3664C85.3883 27.2176 85.4482 27.0392 85.5685 27.0392C87.8815 26.9798 92.0564 26.7417 93.2279 26.3552C93.3181 26.3254 93.378 26.0576 93.348 25.9686C93.0778 25.9386 93.0176 25.8196 92.9876 25.7306C92.7473 24.3027 91.8161 21.6853 89.0229 21.6853C88.2417 21.6853 86.7699 22.1016 85.959 22.637C84.3671 23.6186 83.3758 25.4331 83.3758 27.8421C83.3758 29.4485 83.7965 31.1735 84.9379 32.3933C85.7487 33.2855 86.9502 33.8208 88.452 33.8208C89.9239 33.8208 91.6961 33.0475 93.1377 31.5009C93.1678 31.4414 93.2279 31.1441 93.1978 30.995C93.1978 30.9358 93.1079 30.9059 93.0778 30.9059ZM88.0617 22.4586C89.8036 22.4586 90.6446 24.3325 90.825 25.8494C90.825 25.9686 90.7048 26.0576 90.6446 26.0875C90.0139 26.236 86.3794 26.3552 85.5685 26.2957C85.5385 26.2957 85.4784 26.2065 85.4784 26.1171C85.5986 23.7379 86.7099 22.4586 88.0617 22.4586Z" fill="white"/>
<defs>
<clipPath id="clip0_92_132">
<rect width="49" height="46" fill="white"/>
</clipPath>
</defs>
</svg>
